<svg width="56" height="56" viewBox="0 0 56 56" fill="none" xmlns="http://www.w3.org/2000/svg">
<circle cx="28" cy="28" r="28" fill="black" fill-opacity="0.2"/>
<path d="M39.4071 32.497L33.9135 31.32C33.6651 31.2666 33.4059 31.343 33.2264 31.523L31.2146 33.5343C27.4422 31.6369 24.3631 28.5578 22.4657 24.7854L24.477 22.7736C24.657 22.5941 24.7334 22.3349 24.68 22.0865L23.503 16.5929C23.4289 16.247 23.1233 16 22.7694 16C21.6327 16 20.5561 16.2691 19.5699 16.7992C18.6446 17.297 17.8346 18.0179 17.2271 18.885C16.622 19.7484 16.2226 20.7506 16.0712 21.7823C15.9095 22.8843 16.0234 23.982 16.4097 25.0451C17.612 28.3544 19.5699 31.426 22.0719 33.928C24.574 36.4301 27.6456 38.388 30.9549 39.5903C31.7058 39.8631 32.474 40 33.2489 40C33.5709 40 33.8943 39.9761 34.2177 39.9288C35.2494 39.7774 36.2516 39.378 37.115 38.7729C37.9821 38.1654 38.703 37.3554 39.2008 36.4301C39.7309 35.4439 40 34.3673 40 33.2306C40 32.8767 39.753 32.5711 39.4071 32.497ZM19.8263 18.4219C19.8028 18.4276 19.7794 18.4337 19.7564 18.4397C20.4059 17.9833 21.1524 17.6832 21.9521 17.5614C22.0743 17.5428 22.1898 17.6236 22.2158 17.7445L23.1013 21.877C23.1179 21.9547 23.0941 22.0356 23.0379 22.0918L22.5645 22.5651C22.4332 22.6964 22.2086 22.6301 22.1697 22.4485L21.5362 19.4935C21.3698 18.7182 20.5964 18.234 19.8263 18.4219ZM30.5851 35.2246C30.1454 35.6642 29.4704 35.7608 28.922 35.4674C25.3639 33.5643 22.4357 30.6361 20.5326 27.078C20.2392 26.5296 20.3358 25.8546 20.7754 25.4149L20.7756 25.4148C20.8828 25.3076 21.0638 25.3362 21.132 25.4717C23.1721 29.5218 26.4782 32.8279 30.5283 34.868C30.6638 34.9362 30.6924 35.1172 30.5852 35.2244L30.5851 35.2246ZM37.5603 36.2436C37.5678 36.2169 37.5743 36.1901 37.5809 36.163C37.766 35.3966 37.2776 34.6293 36.5065 34.4638L33.5515 33.8304C33.3699 33.7914 33.3036 33.5668 33.4349 33.4355L33.9082 32.9622C33.9644 32.906 34.0453 32.8821 34.123 32.8988L38.2555 33.7843C38.3764 33.8102 38.4572 33.9257 38.4386 34.048C38.3167 34.8476 38.0167 35.5941 37.5603 36.2436Z" fill="white"/>
</svg>
